<svg width="1264" height="653" viewBox="0 0 1264 653" fill="none" xmlns="http://www.w3.org/2000/svg">
<path d="M835.954 289.045C921.429 289.045 1006.4 289.045 1091.97 289.045C1091.97 257.62 1091.97 226.582 1091.97 194.073C1149.7 242.314 1206.36 289.655 1263.48 337.386C1206.46 385.269 1149.77 432.869 1092.31 481.119C1092.31 448.405 1092.31 416.825 1092.31 384.797C1066.41 384.797 1040.87 384.797 1015.09 384.797C1001.52 464.165 962.843 528.633 898.51 577.122C852.455 611.833 800.439 632.013 742.637 635.396C616.039 642.807 512.402 570.131 462.088 476.665C490.715 456.88 514.551 432.349 532.711 401.075C551.821 452.24 583.59 491.996 631.562 517.329C679.767 542.786 730.361 547.765 782.548 531.449C866.304 505.264 909.395 432.34 917.932 384.469C853.422 384.469 789.007 384.469 724.217 384.469C724.217 352.511 724.217 321.11 724.217 289.046C761.268 289.046 798.361 289.046 835.954 289.045Z" fill="black"/>
<path d="M616.249 164.95C600.888 175.091 586.964 186.863 574.737 200.683C548.557 230.273 534.184 264.879 525.625 303.406C505.457 394.184 449.635 452.351 359.272 475.918C345.266 479.571 330.29 480.742 315.743 480.869C253.25 481.418 190.749 481.15 128.25 481.178C126.13 481.179 124.009 481.179 121.384 481.179C121.384 538.723 121.384 595.634 121.384 652.893C89.6709 652.893 58.4689 652.893 27 652.893C27 448.415 27 244.166 27 39.407C28.8148 39.407 30.436 39.407 32.0571 39.407C126.056 39.4105 220.054 39.2261 314.052 39.4846C374.8 39.6517 425.863 63.3172 469.107 105.135C469.704 105.713 470.278 106.318 470.814 106.951C471.019 107.193 471.086 107.551 471.382 108.245C448.28 132.858 430 160.865 416.547 192.803C415.379 191.259 414.444 190.059 413.547 188.831C391.805 159.057 363.407 140.048 326.373 135.182C321.109 134.49 315.74 134.373 310.419 134.369C249.253 134.324 188.088 134.351 126.922 134.372C125.285 134.372 123.648 134.523 121.673 134.62C121.673 218.269 121.673 301.646 121.673 385.6C124.076 385.6 126.202 385.599 128.328 385.6C189.494 385.619 250.659 385.663 311.825 385.652C366.226 385.642 414.766 349.412 429.96 297.027C434.126 282.665 436.386 267.75 440.564 253.393C466.734 163.464 523.883 100.551 608.834 62.4908C653.895 42.3026 701.36 36.0807 750.391 40.2065C774.58 42.2421 798.044 47.2937 820.835 56.2383C820.911 56.6368 820.748 56.82 820.364 56.7607C817.648 56.3099 815.315 55.9184 812.71 55.2955C797.608 51.5756 782.779 48.0871 767.736 44.4207C767 44.083 766.478 43.9233 765.529 43.7325C763.388 43.662 761.674 43.6225 759.61 43.381C754.828 42.7027 750.396 42.2267 745.501 41.7206C741.01 41.6571 736.983 41.6235 732.775 41.4497C732.048 41.4036 731.501 41.4975 730.516 41.583C728.041 41.5742 726.003 41.5738 723.616 41.3772C719.827 41.3127 716.385 41.4444 712.478 41.5689C703.988 41.9703 695.965 42.3787 687.592 42.7514C686.142 43.001 685.041 43.2864 683.53 43.5793C680.398 43.959 677.675 44.3312 674.63 44.7007C673.523 44.9952 672.738 45.2923 671.572 45.6591C667.805 46.5743 664.405 47.3676 661.036 48.2748C650.983 50.9816 640.941 53.733 630.507 56.497C620.391 60.5392 610.663 64.5514 600.563 68.5956C590.189 74.0046 580.135 79.2856 570.223 84.8218C567.562 86.3083 565.334 88.5716 562.556 90.5247C560.105 91.8991 558.006 93.2271 555.594 94.6341C554.168 95.6655 553.053 96.6178 551.605 97.6539C546.134 102.007 540.995 106.276 535.559 110.697C533.681 112.057 531.927 113.094 530.552 114.501C521.38 123.885 512.356 133.413 503.16 142.773C480.359 165.978 465.778 194.331 452.88 223.634C444.595 242.458 440.217 262.538 436.086 282.605C430.396 310.241 418.525 334.823 397.636 353.869C383.409 366.84 367.454 378.029 347.938 382.282C339.18 384.19 330.392 387.112 321.562 387.327C285.632 388.2 249.682 388.239 213.738 388.482C209.097 388.514 204.454 387.721 199.809 387.688C184.553 387.581 169.296 387.638 154.039 387.657C151.044 387.661 148.049 387.823 145.053 387.834C139.259 387.855 133.425 388.252 127.681 387.709C118.959 386.884 118.98 386.6 118.979 377.68C118.975 307.024 118.972 236.368 118.972 165.711C118.972 156.713 119.042 147.714 118.987 138.716C118.961 134.461 120.904 131.938 125.156 131.889C140.611 131.711 156.067 131.647 171.523 131.637C214.683 131.608 257.845 131.845 301.003 131.54C323.428 131.381 345.105 133.768 365.301 144.484C380.417 152.504 394.538 161.677 405.409 175.211C408.555 179.128 412.038 182.776 415.667 186.888C416.859 185.181 417.497 184.43 417.957 183.584C423.582 173.236 428.583 162.49 434.936 152.612C442.92 140.197 451.516 128.096 460.769 116.602C468.117 107.475 468.678 108.029 459.971 100.016C449.792 90.6487 439.366 81.589 427.232 74.8113C420.28 70.9284 413.191 67.2409 405.945 63.9477C395.515 59.2077 385.23 53.6302 374.271 50.6809C350.679 44.3315 326.694 40.7193 301.937 41.3042C263.131 42.221 224.288 41.5434 185.46 41.5435C135.634 41.5436 85.8084 41.5394 35.9825 41.5559C29.2849 41.5581 28.9448 41.9261 28.9284 48.6678C28.9059 57.9525 28.9288 67.2374 28.9292 76.5222C28.9321 138.965 28.9343 201.407 28.9365 263.849C28.9394 348.624 28.9445 433.399 28.944 518.173C28.9437 556.001 28.9065 593.829 28.963 631.656C28.969 635.632 29.7354 639.608 29.7218 643.582C29.7045 648.639 32.6345 650.414 36.9558 650.544C50.7619 650.959 64.572 651.419 78.382 651.469C88.5242 651.507 98.667 650.837 108.813 650.653C117.529 650.496 118.76 649.495 118.937 640.553C119.334 620.581 119.904 600.606 119.865 580.633C119.806 549.827 119.271 519.022 118.995 488.216C118.92 479.871 120.222 478.645 128.509 478.643C192.833 478.634 257.158 478.456 321.48 478.726C341.617 478.811 360.94 474.408 379.643 468.218C402.267 460.731 423.272 449.637 442.233 434.648C464.203 417.281 482.717 396.892 496.938 373.026C509.991 351.12 519.935 327.602 524.065 302.146C526.96 284.302 531.214 266.879 539.246 250.653C544.321 240.4 550.368 230.629 556.258 220.453C561.33 214.036 566.122 207.807 571.199 201.399C573.431 198.97 575.197 196.527 577.356 194.501C588.877 183.69 600.159 172.57 614.268 164.526C615.005 164.496 615.425 164.465 615.946 164.564C616.047 164.692 616.249 164.95 616.249 164.95Z" fill="black"/>
<path d="M808.954 250.045C894.429 250.045 979.403 250.045 1064.97 250.045C1064.97 218.62 1064.97 187.582 1064.97 155.073C1122.7 203.314 1179.36 250.655 1236.48 298.386C1179.46 346.269 1122.77 393.869 1065.31 442.119C1065.31 409.405 1065.31 377.825 1065.31 345.797C1039.41 345.797 1013.87 345.797 988.09 345.797C974.518 425.165 935.843 489.633 871.51 538.122C825.455 572.833 773.439 593.013 715.637 596.396C589.039 603.807 485.402 531.131 435.088 437.665C463.715 417.88 487.551 393.349 505.711 362.075C524.821 413.24 556.59 452.996 604.562 478.329C652.767 503.786 703.361 508.765 755.548 492.449C839.304 466.264 882.395 393.34 890.932 345.469C826.422 345.469 762.007 345.469 697.217 345.469C697.217 313.511 697.217 282.11 697.217 250.046C734.268 250.046 771.361 250.046 808.954 250.045Z" fill="#FFC321"/>
<path d="M589.249 125.95C573.888 136.091 559.964 147.863 547.737 161.683C521.557 191.273 507.184 225.879 498.625 264.406C478.457 355.184 422.635 413.351 332.272 436.918C318.266 440.571 303.29 441.742 288.743 441.869C226.25 442.418 163.749 442.15 101.25 442.178C99.1296 442.179 97.0091 442.179 94.3841 442.179C94.3841 499.723 94.3841 556.634 94.3841 613.893C62.6709 613.893 31.4689 613.893 0 613.893C0 409.415 0 205.166 0 0.407019C1.81479 0.407019 3.43597 0.406958 5.05713 0.407019C99.0555 0.410498 193.054 0.226111 287.052 0.484595C347.8 0.651709 398.863 24.3172 442.107 66.1355C442.704 66.7127 443.278 67.318 443.814 67.9515C444.019 68.1931 444.086 68.5508 444.382 69.2447C421.28 93.8577 403 121.865 389.547 153.803C388.379 152.259 387.444 151.059 386.547 149.831C364.805 120.057 336.407 101.048 299.373 96.1819C294.109 95.4902 288.74 95.3731 283.419 95.3692C222.253 95.3243 161.088 95.3509 99.9223 95.3718C98.285 95.3724 96.6478 95.5226 94.6729 95.6197C94.6729 179.269 94.6729 262.646 94.6729 346.6C97.0762 346.6 99.2021 346.599 101.328 346.6C162.494 346.619 223.659 346.663 284.825 346.652C339.226 346.642 387.766 310.412 402.96 258.027C407.126 243.665 409.386 228.75 413.564 214.393C439.734 124.464 496.883 61.5505 581.834 23.4908C626.895 3.30265 674.36 -2.91934 723.391 1.20652C747.58 3.2421 771.044 8.29368 793.835 17.2383C793.911 17.6368 793.748 17.82 793.364 17.7607C790.648 17.3099 788.315 16.9184 785.71 16.2955C770.608 12.5756 755.779 9.08713 740.736 5.42069C740 5.08304 739.478 4.92325 738.529 4.73246C736.388 4.66196 734.674 4.62253 732.61 4.38096C727.828 3.70273 723.396 3.22666 718.501 2.72062C714.01 2.65714 709.983 2.62351 705.775 2.44974C705.048 2.4036 704.501 2.49753 703.516 2.58304C701.041 2.57419 699.003 2.57383 696.616 2.37723C692.827 2.31266 689.385 2.44437 685.478 2.56888C676.988 2.97025 668.965 3.3787 660.592 3.75138C659.142 4.00095 658.041 4.28641 656.53 4.57926C653.398 4.95896 650.675 5.33115 647.63 5.70072C646.523 5.99522 645.738 6.29227 644.572 6.65909C640.805 7.57432 637.405 8.36759 634.036 9.27476C623.983 11.9816 613.941 14.733 603.507 17.497C593.391 21.5392 583.663 25.5514 573.563 29.5956C563.189 35.0046 553.135 40.2856 543.223 45.8218C540.562 47.3083 538.334 49.5716 535.556 51.5247C533.105 52.8991 531.006 54.2271 528.594 55.6341C527.168 56.6655 526.053 57.6178 524.605 58.6539C519.134 63.0069 513.995 67.276 508.559 71.6972C506.681 73.0572 504.927 74.0937 503.552 75.5008C494.38 84.8849 485.356 94.4133 476.16 103.773C453.359 126.978 438.778 155.331 425.88 184.634C417.595 203.458 413.217 223.538 409.086 243.605C403.396 271.241 391.525 295.823 370.636 314.869C356.409 327.84 340.454 339.029 320.938 343.282C312.18 345.19 303.392 348.112 294.562 348.327C258.632 349.2 222.682 349.239 186.738 349.482C182.097 349.514 177.454 348.721 172.809 348.688C157.553 348.581 142.296 348.638 127.039 348.657C124.044 348.661 121.049 348.823 118.053 348.834C112.259 348.855 106.425 349.252 100.681 348.709C91.9591 347.884 91.9797 347.6 91.9792 338.68C91.9748 268.024 91.9717 197.368 91.9721 126.711C91.9722 117.713 92.0417 108.714 91.9868 99.7156C91.9608 95.4605 93.9041 92.9378 98.1564 92.8888C113.611 92.7106 129.067 92.6466 144.523 92.6365C187.683 92.6082 230.845 92.8455 274.003 92.54C296.428 92.3813 318.105 94.768 338.301 105.484C353.417 113.504 367.538 122.677 378.409 136.211C381.555 140.128 385.038 143.776 388.667 147.888C389.859 146.181 390.497 145.43 390.957 144.584C396.582 134.236 401.583 123.49 407.936 113.612C415.92 101.197 424.516 89.0965 433.769 77.602C441.117 68.4753 441.678 69.029 432.971 61.0158C422.792 51.6487 412.366 42.589 400.232 35.8113C393.28 31.9284 386.191 28.2409 378.945 24.9477C368.515 20.2077 358.23 14.6302 347.271 11.6809C323.679 5.33152 299.694 1.71927 274.937 2.30424C236.131 3.22104 197.288 2.54337 158.46 2.54349C108.634 2.54362 58.8084 2.5394 8.98251 2.55588C2.28488 2.55814 1.94476 2.92606 1.92841 9.66776C1.90588 18.9525 1.92877 28.2374 1.9292 37.5222C1.93207 99.9645 1.93427 162.407 1.93646 224.849C1.93942 309.624 1.94452 394.399 1.94397 479.173C1.94372 517.001 1.90652 554.829 1.96304 592.656C1.96899 596.632 2.73538 600.608 2.7218 604.582C2.7045 609.639 5.63452 611.414 9.95584 611.544C23.7619 611.959 37.572 612.419 51.382 612.469C61.5242 612.507 71.667 611.837 81.8127 611.653C90.5292 611.496 91.7598 610.495 91.9373 601.553C92.3338 581.581 92.9038 561.606 92.8654 541.633C92.8062 510.827 92.2705 480.022 91.9947 449.216C91.92 440.871 93.2223 439.645 101.509 439.643C165.833 439.634 230.158 439.456 294.48 439.726C314.617 439.811 333.94 435.408 352.643 429.218C375.267 421.731 396.272 410.637 415.233 395.648C437.203 378.281 455.717 357.892 469.938 334.026C482.991 312.12 492.935 288.602 497.065 263.146C499.96 245.302 504.214 227.879 512.246 211.653C517.321 201.4 523.368 191.629 529.258 181.453C534.33 175.036 539.122 168.807 544.199 162.399C546.431 159.97 548.197 157.527 550.356 155.501C561.877 144.69 573.159 133.57 587.268 125.526C588.005 125.496 588.425 125.465 588.946 125.564C589.047 125.692 589.249 125.95 589.249 125.95Z" fill="#FFC321"/>
</svg>
