<svg width="1237" height="614" viewBox="0 0 1237 614" fill="none" xmlns="http://www.w3.org/2000/svg">
<path d="M808.954 250.045C894.429 250.045 979.403 250.045 1064.97 250.045C1064.97 218.62 1064.97 187.582 1064.97 155.073C1122.7 203.314 1179.36 250.655 1236.48 298.386C1179.46 346.269 1122.77 393.869 1065.31 442.119C1065.31 409.405 1065.31 377.825 1065.31 345.797C1039.41 345.797 1013.87 345.797 988.089 345.797C974.518 425.165 935.843 489.633 871.51 538.122C825.455 572.833 773.439 593.013 715.637 596.396C589.039 603.807 485.402 531.131 435.088 437.665C463.715 417.88 487.551 393.349 505.711 362.075C524.821 413.24 556.59 452.996 604.561 478.329C652.767 503.786 703.361 508.765 755.548 492.449C839.303 466.264 882.395 393.34 890.932 345.469C826.421 345.469 762.007 345.469 697.217 345.469C697.217 313.511 697.217 282.11 697.217 250.046C734.268 250.046 771.361 250.046 808.954 250.045Z" fill="#FFC321"/>
<path d="M589.249 125.95C573.888 136.091 559.964 147.863 547.737 161.683C521.557 191.273 507.184 225.879 498.625 264.406C478.457 355.184 422.635 413.351 332.272 436.918C318.266 440.571 303.29 441.742 288.743 441.869C226.25 442.418 163.749 442.15 101.25 442.178C99.1296 442.179 97.0091 442.179 94.3841 442.179C94.3841 499.723 94.3841 556.634 94.3841 613.893C62.6709 613.893 31.4689 613.893 0 613.893C0 409.415 0 205.166 0 0.407019C1.81479 0.407019 3.43597 0.406958 5.05713 0.407019C99.0555 0.410498 193.054 0.226111 287.052 0.484595C347.8 0.651709 398.863 24.3172 442.107 66.1355C442.704 66.7127 443.278 67.318 443.814 67.9515C444.019 68.1931 444.086 68.5508 444.382 69.2447C421.28 93.8577 403 121.865 389.547 153.803C388.379 152.259 387.444 151.059 386.547 149.831C364.805 120.057 336.407 101.048 299.373 96.1819C294.109 95.4902 288.74 95.3731 283.419 95.3692C222.253 95.3243 161.088 95.3509 99.9223 95.3718C98.285 95.3724 96.6478 95.5226 94.6729 95.6197C94.6729 179.269 94.6729 262.646 94.6729 346.6C97.0762 346.6 99.2021 346.599 101.328 346.6C162.494 346.619 223.659 346.663 284.825 346.652C339.226 346.642 387.766 310.412 402.96 258.027C407.126 243.665 409.386 228.75 413.564 214.393C439.734 124.464 496.883 61.5505 581.834 23.4908C626.895 3.30265 674.36 -2.91934 723.391 1.20652C747.58 3.2421 771.044 8.29368 793.835 17.2383C793.911 17.6368 793.748 17.82 793.364 17.7607C790.648 17.3099 788.315 16.9184 785.71 16.2955C770.608 12.5756 755.779 9.08713 740.736 5.42069C740 5.08304 739.478 4.92325 738.529 4.73246C736.388 4.66196 734.674 4.62253 732.61 4.38096C727.828 3.70273 723.396 3.22666 718.501 2.72062C714.01 2.65714 709.983 2.62351 705.775 2.44974C705.048 2.4036 704.501 2.49753 703.516 2.58304C701.041 2.57419 699.003 2.57383 696.616 2.37723C692.827 2.31266 689.385 2.44437 685.478 2.56888C676.988 2.97025 668.965 3.3787 660.592 3.75138C659.142 4.00095 658.041 4.28641 656.53 4.57926C653.398 4.95896 650.675 5.33115 647.63 5.70072C646.523 5.99522 645.738 6.29227 644.572 6.65909C640.805 7.57432 637.405 8.36759 634.036 9.27476C623.983 11.9816 613.941 14.733 603.507 17.497C593.391 21.5392 583.663 25.5514 573.563 29.5956C563.189 35.0046 553.135 40.2856 543.223 45.8218C540.562 47.3083 538.334 49.5716 535.556 51.5247C533.105 52.8991 531.006 54.2271 528.594 55.6341C527.168 56.6655 526.053 57.6178 524.605 58.6539C519.134 63.0069 513.995 67.276 508.559 71.6972C506.681 73.0572 504.927 74.0937 503.552 75.5008C494.38 84.8849 485.356 94.4133 476.16 103.773C453.359 126.978 438.778 155.331 425.88 184.634C417.595 203.458 413.217 223.538 409.086 243.605C403.396 271.241 391.525 295.823 370.636 314.869C356.409 327.84 340.454 339.029 320.938 343.282C312.18 345.19 303.392 348.112 294.562 348.327C258.632 349.2 222.682 349.239 186.738 349.482C182.097 349.514 177.454 348.721 172.809 348.688C157.553 348.581 142.296 348.638 127.039 348.657C124.044 348.661 121.049 348.823 118.053 348.834C112.259 348.855 106.425 349.252 100.681 348.709C91.9591 347.884 91.9797 347.6 91.9792 338.68C91.9748 268.024 91.9717 197.368 91.9721 126.711C91.9722 117.713 92.0417 108.714 91.9868 99.7156C91.9608 95.4605 93.9041 92.9378 98.1564 92.8888C113.611 92.7106 129.067 92.6466 144.523 92.6365C187.683 92.6082 230.845 92.8455 274.003 92.54C296.428 92.3813 318.105 94.768 338.301 105.484C353.417 113.504 367.538 122.677 378.409 136.211C381.555 140.128 385.038 143.776 388.667 147.888C389.859 146.181 390.497 145.43 390.957 144.584C396.582 134.236 401.583 123.49 407.936 113.612C415.92 101.197 424.516 89.0965 433.769 77.602C441.117 68.4753 441.678 69.029 432.971 61.0158C422.792 51.6487 412.366 42.589 400.232 35.8113C393.28 31.9284 386.191 28.2409 378.945 24.9477C368.515 20.2077 358.23 14.6302 347.271 11.6809C323.679 5.33152 299.694 1.71927 274.937 2.30424C236.131 3.22104 197.288 2.54337 158.46 2.54349C108.634 2.54362 58.8084 2.5394 8.98251 2.55588C2.28488 2.55814 1.94476 2.92606 1.92841 9.66776C1.90588 18.9525 1.92877 28.2374 1.9292 37.5222C1.93207 99.9645 1.93427 162.407 1.93646 224.849C1.93942 309.624 1.94452 394.399 1.94397 479.173C1.94372 517.001 1.90652 554.829 1.96304 592.656C1.96899 596.632 2.73538 600.608 2.7218 604.582C2.7045 609.639 5.63452 611.414 9.95584 611.544C23.7619 611.959 37.572 612.419 51.382 612.469C61.5242 612.507 71.667 611.837 81.8127 611.653C90.5292 611.496 91.7598 610.495 91.9373 601.553C92.3338 581.581 92.9038 561.606 92.8654 541.633C92.8062 510.827 92.2705 480.022 91.9947 449.216C91.92 440.871 93.2223 439.645 101.509 439.643C165.833 439.634 230.158 439.456 294.48 439.726C314.617 439.811 333.94 435.408 352.643 429.218C375.267 421.731 396.272 410.637 415.233 395.648C437.203 378.281 455.717 357.892 469.938 334.026C482.991 312.12 492.935 288.602 497.065 263.146C499.96 245.302 504.214 227.879 512.246 211.653C517.321 201.4 523.368 191.629 529.258 181.453C534.33 175.036 539.122 168.807 544.199 162.399C546.431 159.97 548.197 157.527 550.356 155.501C561.877 144.69 573.159 133.57 587.268 125.526C588.005 125.496 588.425 125.465 588.946 125.564C589.047 125.692 589.249 125.95 589.249 125.95Z" fill="#FFC321"/>
<path d="M895.151 79.3839C897.039 80.702 899.141 81.7974 900.783 83.3716C925.948 107.486 945.861 135.415 961.07 166.735C961.914 168.474 962.6 170.29 963.555 172.529C961.384 172.644 959.925 172.789 958.466 172.788C924.97 172.783 891.473 172.701 857.977 172.838C854.572 172.851 852.931 171.173 851.114 168.907C825.811 137.342 793.87 115.169 755.275 103.291C727.085 94.6153 698.068 92.5835 668.343 96.3203C667.958 95.8154 667.969 95.6348 668.159 95.1375C669.546 94.4086 670.743 93.6821 671.966 93.6338C682.599 93.2138 693.274 92.2246 703.866 92.7702C715.007 93.3441 723.775 88.0667 732.905 83.3392C733.939 82.8038 734.446 80.9508 734.863 79.6053C735.285 78.2449 735.293 76.7557 735.621 74.2645C739.722 75.5143 743.204 76.9597 746.825 77.5469C749.336 77.9541 753.052 78.1819 754.47 76.7487C759.111 72.0577 764.058 73.9209 769.3 74.5958C768.625 76.1896 767.422 78.0612 766.7 77.8913C760.695 76.4777 759.629 80.6133 758.115 84.7363C757.682 85.917 755.995 86.6981 754.789 87.5236C750.966 90.1381 750.177 94.7312 753.246 98.7895C763.033 102.874 772.598 106.598 781.992 110.711C786.33 112.61 790.317 115.417 793.683 109.439C793.987 108.9 795.176 108.86 796.327 108.615C802.413 109.64 802.402 109.64 802.011 103.978C801.933 102.852 801.97 101.718 802.353 100.587C803.82 100.587 804.887 100.587 806.136 100.886C807.962 104.506 809.606 107.828 811.369 111.389C817.031 109.052 809.655 100.802 818.164 98.7336C815.598 102.306 814.63 104.83 818.951 105.585C818.954 105.587 818.958 105.592 818.985 105.961C820.055 108.137 821.202 109.894 822.105 111.769C822.677 112.955 822.886 114.316 823.257 115.599C822.04 115.509 820.554 115.834 819.655 115.253C816.438 113.171 813.843 113.304 812.025 115.948C815.272 121.868 818.279 127.357 821.3 132.839C821.456 133.122 821.733 133.34 822.103 133.891C828.016 139.884 833.568 145.813 839.63 151.163C842.704 153.877 850.459 151.443 853.007 148.153C854.238 146.563 856.413 145.675 858.221 144.567C860.113 143.408 863.763 142.321 863.734 141.282C863.562 135.014 870.023 132.627 870.778 127.341C879.392 127.678 884.499 125.34 886.256 119.517C887.416 115.672 889.223 113.103 892.894 111.477C894.173 110.909 894.929 109.142 895.902 107.905C897.843 105.436 899.349 102.375 901.793 100.606C906.194 97.4226 907.072 95.1863 903.835 90.8835C900.961 87.0634 897.869 83.4069 894.943 79.6045C895.012 79.5308 895.151 79.3839 895.151 79.3839ZM743.763 81.4551C744.037 81.9308 744.312 82.4065 744.586 82.8823C744.891 82.5886 745.197 82.2949 745.502 82.0012C745.038 81.7128 744.575 81.4244 743.763 81.4551Z" fill="#FFC321"/>
<path d="M835.836 36.7067C848.368 44.3459 861.252 51.4749 873.305 59.8065C881.132 65.2167 887.747 72.3806 895.028 79.0714C895.151 79.3839 895.012 79.5308 894.59 79.5557C890.097 76.583 886.025 73.5852 881.762 70.3271C880.3 70.0406 878.843 69.5916 877.793 70.0581C871.662 72.7806 865.715 75.9303 859.52 78.4832C856.855 79.5809 855.504 80.4288 856.775 83.4785C857.141 84.3575 856.663 86.5262 856.16 86.6703C853.713 87.3726 851.128 87.7672 848.586 87.7918C848.189 87.7957 847.54 85.3572 847.402 84.0077C847.036 80.4388 847.749 76.4921 846.45 73.3494C844.53 68.7014 845.784 64.9847 848.478 61.853C851.431 58.4207 851.896 54.676 851.871 50.2525C850.185 48.3122 848.743 46.4878 846.941 45.1479C843.39 42.5082 839.64 40.1371 835.944 37.4169C835.917 37.179 835.836 36.7067 835.836 36.7067Z" fill="#FFC321"/>
<path d="M667.981 95.4542C667.969 95.6348 667.958 95.8154 667.913 96.2654C657.783 98.8207 647.588 100.743 637.613 103.473C620.486 108.161 604.924 116.396 589.591 125.855C589.248 125.95 589.047 125.692 589.09 125.341C589.386 124.521 589.638 124.052 590.172 123.451C591.29 122.728 592.127 122.136 593.273 121.409C595.729 119.725 597.876 118.175 600.389 116.592C605.648 114.246 610.442 111.684 615.458 109.674C623.543 106.434 631.774 103.558 640.328 100.466C645.798 99.1398 650.885 97.876 656.346 96.605C657.463 96.5449 658.208 96.492 659.229 96.4089C659.993 96.1204 660.48 95.862 661.404 95.6031C663.888 95.5532 665.934 95.5037 667.981 95.4542Z" fill="#FFC321"/>
<path d="M835.596 36.4699C835.837 36.7067 835.917 37.179 835.615 37.2563C830.574 35.3896 825.835 33.4456 820.942 31.1933C814.017 27.7324 807.231 24.6121 800.484 21.4093C798.188 20.3195 795.99 19.0225 793.748 17.8201C793.748 17.8201 793.911 17.6368 793.993 17.5453C802.884 20.8779 811.812 24.0303 820.456 27.8277C825.651 30.1096 830.404 33.3974 835.596 36.4699Z" fill="#FFC321"/>
<path d="M668.159 95.1375C665.934 95.5037 663.888 95.5532 661.209 95.4741C660.035 95.71 659.494 96.0745 658.952 96.439C658.208 96.492 657.463 96.5449 656.018 96.3964C649.599 95.5308 644.229 96.1054 639.944 100.529C631.774 103.558 623.543 106.434 615.458 109.674C610.442 111.684 605.648 114.246 600.002 116.61C596.365 117.272 593.081 117.37 592.964 121.544C592.127 122.136 591.29 122.728 589.853 123.484C588.486 124.274 587.719 124.9 586.951 125.526C573.159 133.57 561.877 144.69 550.356 155.501C548.197 157.527 546.431 159.97 543.788 162.404C541.003 162.988 538.782 163.077 536.861 163.881C535.092 164.621 532.724 165.831 532.228 167.356C530.727 171.982 530.005 176.861 528.979 181.642C523.368 191.629 517.321 201.4 512.246 211.653C504.214 227.879 499.96 245.302 497.065 263.146C492.935 288.602 482.991 312.12 469.938 334.026C455.717 357.892 437.203 378.281 415.233 395.648C396.272 410.637 375.267 421.731 352.643 429.218C333.94 435.408 314.617 439.811 294.48 439.726C230.158 439.456 165.833 439.634 101.509 439.643C93.2223 439.645 91.9199 440.871 91.9946 449.216C92.2705 480.022 92.8061 510.827 92.8654 541.633C92.9038 561.606 92.3337 581.581 91.9373 601.553C91.7598 610.495 90.5291 611.496 81.8126 611.653C71.6669 611.837 61.5241 612.507 51.3819 612.469C37.5719 612.419 23.7619 611.959 9.95579 611.544C5.63447 611.414 2.70445 609.639 2.72175 604.582C2.73533 600.608 1.96895 596.632 1.96299 592.656C1.90648 554.829 1.94368 517.001 1.94392 479.173C1.94447 394.399 1.93937 309.624 1.93641 224.849C1.93422 162.407 1.93202 99.9645 1.92915 37.5222C1.92872 28.2374 1.90584 18.9525 1.92836 9.66779C1.94471 2.92609 2.28483 2.55817 8.98247 2.55591C58.8084 2.53943 108.634 2.54364 158.46 2.54352C197.288 2.5434 236.131 3.22107 274.937 2.30426C299.694 1.7193 323.679 5.33154 347.271 11.6809C358.23 14.6302 368.515 20.2077 378.945 24.9477C386.191 28.2409 393.28 31.9284 400.232 35.8113C412.366 42.5891 422.792 51.6487 432.971 61.0159C441.678 69.029 441.117 68.4753 433.769 77.602C424.516 89.0965 415.92 101.198 407.936 113.612C401.583 123.49 396.581 134.236 390.957 144.584C390.497 145.43 389.859 146.181 388.667 147.888C385.038 143.776 381.555 140.128 378.409 136.211C367.538 122.677 353.416 113.504 338.301 105.484C318.105 94.768 296.428 92.3813 274.003 92.54C230.845 92.8455 187.683 92.6082 144.523 92.6365C129.067 92.6467 113.611 92.7106 98.1564 92.8888C93.904 92.9378 91.9607 95.4606 91.9868 99.7156C92.0417 108.714 91.9722 117.713 91.9721 126.711C91.9716 197.368 91.9748 268.024 91.9791 338.68C91.9797 347.6 91.9591 347.884 100.681 348.709C106.425 349.252 112.259 348.855 118.053 348.834C121.049 348.823 124.044 348.661 127.039 348.657C142.296 348.638 157.553 348.581 172.809 348.688C177.454 348.721 182.097 349.514 186.738 349.482C222.681 349.239 258.632 349.2 294.562 348.327C303.391 348.112 312.18 345.19 320.938 343.282C340.454 339.029 356.409 327.84 370.636 314.869C391.525 295.823 403.396 271.241 409.086 243.605C413.217 223.538 417.595 203.458 425.88 184.634C438.778 155.331 453.359 126.979 476.16 103.773C485.356 94.4133 494.38 84.8849 503.551 75.5009C504.927 74.0937 506.681 73.0572 508.934 71.6365C517.066 69.939 522.178 65.6572 524.938 58.5701C526.053 57.6178 527.167 56.6655 528.984 55.6357C531.759 54.1982 533.833 52.8383 535.907 51.4784C538.334 49.5717 540.562 47.3084 543.223 45.8218C553.135 40.2856 563.189 35.0046 573.843 29.7843C580.024 31.0178 587.534 27.964 588.877 37.4667C591.393 36.4202 594.631 37.1673 593.886 33.0493C593.788 32.5059 594.55 31.3383 595.083 31.22C602.632 29.5443 603.394 23.6031 603.896 17.467C613.941 14.733 623.982 11.9816 634.036 9.27478C637.405 8.36762 640.805 7.57434 644.802 6.82575C646.26 6.51618 647.106 6.1098 647.952 5.70343C650.675 5.33118 653.398 4.95899 656.788 4.76459C658.618 4.55738 659.779 4.1723 660.941 3.78717C668.965 3.37873 676.988 2.97028 685.821 2.77826C690.075 2.85437 693.52 2.71393 696.965 2.57349C699.003 2.57385 701.041 2.57422 703.696 2.72443C704.86 2.77954 705.407 2.68476 705.955 2.58997C709.982 2.62354 714.01 2.65717 718.652 3.02106C723.558 6.78205 728.269 5.56842 732.96 4.58313C734.674 4.62256 736.388 4.66199 738.606 4.94794C739.723 5.32922 740.337 5.46393 740.95 5.59863C755.779 9.08716 770.608 12.5756 785.631 16.657C784.341 20.6419 784.23 23.7889 786.537 27.0576C787.461 28.3672 787.592 30.5107 787.471 32.2317C787.104 37.47 790.387 41.8112 795.516 41.7703C796.822 41.7599 799.223 39.8369 799.223 38.7919C799.225 33.6818 802.443 33.8956 805.176 35.4321C810.033 38.1612 813.572 37.147 816.956 33.2112C817.647 32.4067 818.94 32.1185 819.874 31.9247C817.919 34.3198 816.333 36.7955 814.106 38.3533C810.297 41.0173 809.04 43.8671 811.636 47.9858C813.564 51.046 813.142 54.2817 810.074 55.7294C806.22 57.5485 801.873 58.429 797.66 59.3584C792.975 60.3925 791.95 62.1165 794.156 66.1795C796.195 69.936 793.302 77.0179 789.274 77.9072C788.594 78.0573 787.398 77.7335 787.086 77.2293C786.658 76.5373 786.573 75.3776 786.827 74.5723C787.357 72.8987 788.206 71.3264 788.923 69.7125C788.469 69.3309 788.015 68.9493 787.561 68.5677C783.906 70.9436 780.251 73.3194 775.108 76.662C778.732 77.6528 781.036 78.2827 783.368 78.9203C784.042 83.8633 782.895 85.5472 779.25 84.6736C770.191 82.5028 762.623 84.5902 757.041 92.3624C755.594 94.377 754.311 96.5092 752.953 98.5875C750.177 94.7312 750.966 90.1381 754.789 87.5236C755.995 86.6981 757.682 85.917 758.115 84.7363C759.629 80.6133 760.695 76.4777 766.7 77.8913C767.422 78.0612 768.625 76.1896 769.3 74.5958C764.058 73.9209 759.111 72.0577 754.47 76.7487C753.052 78.1819 749.336 77.9541 746.825 77.5469C743.204 76.9597 739.722 75.5143 735.621 74.2645C735.293 76.7557 735.285 78.2449 734.863 79.6053C734.446 80.9507 733.939 82.8038 732.905 83.3392C723.774 88.0667 715.007 93.3441 703.866 92.7702C693.274 92.2246 682.599 93.2137 671.966 93.6338C670.742 93.6821 669.546 94.4086 668.159 95.1375ZM773.22 47.2501C772.908 48.5499 772.597 49.8499 772.285 51.1498C774.35 50.6668 776.414 50.1837 778.478 49.7006C778.403 49.067 778.328 48.4334 778.253 47.7997C776.794 47.5206 775.335 47.2416 773.22 47.2501ZM763.608 68.0544C766.26 67.7728 768.912 67.4912 771.563 67.2096C771.496 66.7371 771.428 66.2647 771.361 65.7922C768.875 65.7922 766.386 65.7292 763.909 65.8736C763.606 65.8912 763.368 67.0208 763.608 68.0544ZM769.192 41.0989C770.281 41.1672 771.369 41.2355 772.458 41.3039C772.251 40.5799 772.044 39.856 771.838 39.1319C770.844 39.6112 769.851 40.0905 769.192 41.0989ZM783.641 31.2488C783.05 31.3011 782.459 31.3533 781.868 31.4055C782.205 31.8967 782.542 32.3878 782.879 32.879C783.255 32.4503 783.631 32.0215 783.641 31.2488ZM792.673 52.4257C792.841 52.5463 793.009 52.6668 793.176 52.7873C793.07 52.6106 792.964 52.434 792.673 52.4257ZM784.115 39.3079C783.995 39.4754 783.874 39.6429 783.754 39.8105C783.93 39.7046 784.107 39.5987 784.115 39.3079Z" fill="#FFC321"/>
<path d="M819.955 31.5923C818.94 32.1185 817.647 32.4067 816.956 33.2112C813.572 37.147 810.033 38.1612 805.176 35.4321C802.443 33.8956 799.225 33.6818 799.223 38.7919C799.223 39.8369 796.822 41.7599 795.516 41.7703C790.387 41.8112 787.104 37.47 787.471 32.2317C787.592 30.5107 787.461 28.3672 786.537 27.0576C784.23 23.7889 784.341 20.6419 785.904 16.8885C788.315 16.9185 790.648 17.3099 793.364 17.7607C795.99 19.0225 798.188 20.3195 800.484 21.4093C807.231 24.6121 814.017 27.7324 820.656 31.2207C820.334 31.5684 820.145 31.5804 819.955 31.5923Z" fill="#FFC321"/>
<path d="M603.507 17.4971C603.394 23.6031 602.632 29.5443 595.083 31.22C594.551 31.3383 593.788 32.5059 593.886 33.0493C594.631 37.1673 591.393 36.4202 588.877 37.4667C587.534 27.964 580.024 31.0178 574.215 29.7521C583.663 25.5514 593.391 21.5392 603.507 17.4971Z" fill="#FFC321"/>
<path d="M529.258 181.453C530.005 176.861 530.727 171.982 532.228 167.356C532.724 165.831 535.092 164.621 536.861 163.881C538.782 163.077 541.003 162.988 543.503 162.583C539.122 168.807 534.33 175.036 529.258 181.453Z" fill="#FFC321"/>
<path d="M524.605 58.6539C522.178 65.6572 517.066 69.939 509.233 71.4846C513.996 67.2761 519.134 63.0069 524.605 58.6539Z" fill="#FFC321"/>
<path d="M732.61 4.38098C728.27 5.56842 723.558 6.78204 719.115 3.05096C723.396 3.22668 727.828 3.70276 732.61 4.38098Z" fill="#FFC321"/>
<path d="M696.616 2.37726C693.52 2.71393 690.075 2.85438 686.287 2.78547C689.385 2.4444 692.827 2.31269 696.616 2.37726Z" fill="#FFC321"/>
<path d="M535.556 51.5247C533.833 52.8383 531.759 54.1982 529.296 55.5566C531.006 54.2271 533.105 52.8991 535.556 51.5247Z" fill="#FFC321"/>
<path d="M660.592 3.7514C659.779 4.1723 658.618 4.55737 657.198 4.75714C658.041 4.28644 659.141 4.00098 660.592 3.7514Z" fill="#FFC321"/>
<path d="M647.63 5.70081C647.106 6.1098 646.26 6.51617 645.183 6.75592C645.738 6.2923 646.523 5.99524 647.63 5.70081Z" fill="#FFC321"/>
<path d="M587.268 125.526C587.719 124.9 588.486 124.274 589.572 123.616C589.638 124.052 589.386 124.521 588.989 125.212C588.425 125.465 588.005 125.496 587.268 125.526Z" fill="#FFC321"/>
<path d="M740.736 5.4207C740.337 5.46391 739.724 5.32921 739.033 4.97905C739.478 4.92326 740 5.08305 740.736 5.4207Z" fill="#FFC321"/>
<path d="M705.775 2.44975C705.407 2.68473 704.86 2.77952 704.133 2.73295C704.501 2.49754 705.048 2.40361 705.775 2.44975Z" fill="#FFC321"/>
<path d="M881.954 70.5875C886.025 73.5852 890.097 76.583 894.521 79.6295C897.869 83.4069 900.961 87.0634 903.835 90.8835C907.073 95.1863 906.194 97.4226 901.793 100.606C899.349 102.375 897.843 105.436 895.902 107.905C894.929 109.142 894.173 110.909 892.894 111.477C889.224 113.103 887.416 115.672 886.256 119.517C884.499 125.34 879.392 127.678 870.778 127.341C870.023 132.627 863.562 135.014 863.734 141.282C863.763 142.321 860.114 143.408 858.221 144.567C856.413 145.675 854.238 146.562 853.007 148.153C850.459 151.443 842.704 153.877 839.63 151.163C833.568 145.813 828.016 139.884 822.3 133.597C823.332 131.192 824.265 129.353 825.314 127.582C827.495 123.898 829.737 120.25 832.276 116.513C834.05 115.488 835.502 114.538 837.272 113.471C839.748 111.978 841.776 110.281 844.109 109.34C845.676 108.708 848.689 109.81 849.249 108.954C850.128 107.611 849.483 105.271 849.483 103.014C850.202 102.61 852.205 102.191 852.658 101.117C856.062 93.0562 861.401 86.8108 868.979 82.4572C869.096 82.39 869.084 82.1226 869.197 82.0209C873.445 78.2045 877.7 74.3965 881.954 70.5875Z" fill="#FFC321"/>
<path d="M819.874 31.9246C820.145 31.5804 820.335 31.5684 820.81 31.529C825.835 33.4456 830.574 35.3896 835.643 37.4943C839.64 40.1371 843.39 42.5082 846.941 45.1479C848.743 46.4878 850.185 48.3122 851.587 50.4333C850.34 52.0071 849.317 53.087 848.247 54.1186C845.79 56.4874 843.528 60.4252 840.787 60.7994C837.04 61.3109 835.192 63.3118 833.266 65.5744C830.383 68.9603 827.909 72.6921 825.177 76.2121C824.708 76.8167 823.667 76.9661 823.164 77.5582C822.133 78.7699 821.288 80.1394 820.366 81.4439C821.897 82.1512 823.385 83.3053 824.97 83.4619C827.395 83.7011 829.887 83.2518 833.255 83.0371C830.712 87.4102 827.684 87.4586 824.582 86.9557C821.571 86.4677 819.881 87.5881 818.991 90.4756C818.64 91.6148 817.652 92.5577 816.563 93.507C808.95 91.765 808.147 92.2143 806.83 98.8362C806.456 99.5874 806.205 100.087 805.954 100.587C804.887 100.587 803.82 100.587 802 100.663C797.109 101.754 795.553 104.511 795.954 108.587C795.176 108.86 793.987 108.9 793.683 109.439C790.317 115.417 786.331 112.61 781.992 110.711C772.598 106.598 763.033 102.874 753.246 98.7895C754.312 96.5092 755.594 94.377 757.041 92.3624C762.623 84.5902 770.191 82.5028 779.25 84.6736C782.895 85.5472 784.042 83.8633 783.368 78.9203C781.036 78.2827 778.732 77.6528 775.108 76.662C780.251 73.3194 783.906 70.9436 787.562 68.5677C788.016 68.9493 788.47 69.3309 788.924 69.7125C788.206 71.3264 787.357 72.8987 786.827 74.5723C786.573 75.3776 786.658 76.5373 787.086 77.2293C787.398 77.7335 788.594 78.0573 789.274 77.9072C793.302 77.0179 796.195 69.936 794.156 66.1795C791.95 62.1165 792.975 60.3925 797.661 59.3584C801.873 58.429 806.22 57.5485 810.074 55.7294C813.142 54.2817 813.564 51.046 811.636 47.9858C809.041 43.8671 810.297 41.0173 814.106 38.3533C816.333 36.7955 817.919 34.3198 819.874 31.9246Z" fill="#FFC321"/>
<path d="M806.136 100.886C806.205 100.087 806.456 99.5874 807.219 98.8271C810.806 96.908 813.88 95.2489 816.953 93.5899C817.651 92.5577 818.639 91.6148 818.991 90.4756C819.881 87.5881 821.571 86.4677 824.581 86.9557C827.683 87.4586 830.712 87.4102 833.255 83.0371C829.887 83.2518 827.395 83.7011 824.97 83.4619C823.384 83.3053 821.897 82.1512 820.366 81.4439C821.287 80.1394 822.133 78.7699 823.164 77.5582C823.667 76.9661 824.708 76.8167 825.177 76.2121C827.908 72.6921 830.382 68.9603 833.265 65.5744C835.192 63.3118 837.04 61.3109 840.786 60.7994C843.527 60.4252 845.79 56.4874 848.246 54.1186C849.316 53.087 850.34 52.0071 851.669 50.7682C851.896 54.676 851.431 58.4207 848.478 61.853C845.784 64.9847 844.53 68.7014 846.45 73.3494C847.749 76.4921 847.036 80.4388 847.402 84.0077C847.54 85.3572 848.189 87.7957 848.586 87.7918C851.128 87.7672 853.713 87.3726 856.16 86.6703C856.663 86.5262 857.141 84.3575 856.775 83.4785C855.504 80.4288 856.855 79.5809 859.52 78.4832C865.715 75.9303 871.662 72.7806 877.793 70.0581C878.843 69.5916 880.3 70.0406 881.762 70.3271C877.699 74.3965 873.444 78.2045 869.197 82.0209C869.084 82.1226 869.096 82.39 868.979 82.4572C861.401 86.8108 856.061 93.0562 852.658 101.117C852.205 102.191 850.202 102.61 849.482 103.014C849.482 105.271 850.128 107.611 849.249 108.954C848.689 109.81 845.676 108.708 844.108 109.34C841.776 110.281 839.748 111.978 837.045 113.185C834.334 112.522 832.169 112.028 830.004 111.534C829.74 112.061 829.476 112.588 829.212 113.115C830.126 114.273 831.04 115.43 831.953 116.587C829.736 120.25 827.495 123.898 825.313 127.582C824.265 129.353 823.332 131.192 822.15 133.294C821.733 133.34 821.456 133.122 821.3 132.839C818.279 127.357 815.271 121.868 812.025 115.948C813.843 113.304 816.438 113.171 819.655 115.253C820.554 115.834 822.04 115.509 823.257 115.599C822.885 114.316 822.677 112.955 822.105 111.769C821.202 109.894 820.055 108.137 819.353 106.036C822.957 106.602 826.107 107.176 827.773 102.2C824.909 101.722 822.446 101.311 820.075 100.916C819.604 101.786 819.243 102.188 819.172 102.637C819.019 103.606 819.014 104.599 818.948 105.583C814.629 104.83 815.598 102.306 818.164 98.7336C809.655 100.802 817.031 109.052 811.369 111.389C809.606 107.828 807.962 104.506 806.136 100.886ZM842.76 91.4251C843.172 91.54 843.585 91.655 843.997 91.7699C843.972 91.3575 843.947 90.9452 843.922 90.5328C843.481 90.6968 843.04 90.8607 842.76 91.4251ZM843.847 99.1075C843.507 99.2479 843.167 99.3883 842.827 99.5287C842.986 99.7322 843.145 99.9357 843.304 100.139C843.569 99.8959 843.834 99.6525 843.847 99.1075ZM841.115 104.308C840.995 104.475 840.874 104.643 840.754 104.811C840.93 104.705 841.107 104.599 841.115 104.308Z" fill="#FFC321"/>
<path d="M796.327 108.615C795.553 104.511 797.109 101.754 801.6 100.663C801.97 101.718 801.933 102.852 802.011 103.978C802.402 109.64 802.413 109.64 796.327 108.615Z" fill="#FFC321"/>
<path d="M743.937 81.2956C744.575 81.4244 745.038 81.7128 745.502 82.0012C745.197 82.2949 744.891 82.5886 744.586 82.8823C744.312 82.4065 744.037 81.9308 743.937 81.2956Z" fill="#FFC321"/>
<path d="M640.328 100.466C644.229 96.1054 649.599 95.5308 655.645 96.4036C650.885 97.876 645.798 99.1398 640.328 100.466Z" fill="#FFC321"/>
<path d="M593.273 121.409C593.081 117.37 596.365 117.272 599.636 116.642C597.876 118.175 595.729 119.725 593.273 121.409Z" fill="#FFC321"/>
<path d="M659.229 96.4089C659.494 96.0745 660.035 95.71 660.772 95.4745C660.48 95.862 659.993 96.1204 659.229 96.4089Z" fill="#FFC321"/>
<path d="M773.547 47.1063C775.335 47.2416 776.794 47.5206 778.253 47.7997C778.328 48.4333 778.403 49.067 778.478 49.7006C776.414 50.1837 774.349 50.6667 772.285 51.1498C772.597 49.8499 772.908 48.5499 773.547 47.1063Z" fill="#FFC321"/>
<path d="M763.354 67.8448C763.368 67.0208 763.606 65.8913 763.91 65.8736C766.386 65.7292 768.875 65.7923 771.361 65.7923C771.428 66.2647 771.496 66.7372 771.563 67.2096C768.912 67.4912 766.26 67.7729 763.354 67.8448Z" fill="#FFC321"/>
<path d="M769.024 40.8343C769.85 40.0905 770.844 39.6112 771.838 39.1319C772.044 39.856 772.251 40.5799 772.458 41.3039C771.369 41.2355 770.281 41.1672 769.024 40.8343Z" fill="#FFC321"/>
<path d="M783.824 31.4208C783.631 32.0215 783.255 32.4502 782.879 32.8789C782.542 32.3878 782.205 31.8966 781.868 31.4056C782.459 31.3533 783.05 31.3011 783.824 31.4208Z" fill="#FFC321"/>
<path d="M792.766 52.3415C792.964 52.434 793.07 52.6106 793.176 52.7873C793.009 52.6668 792.841 52.5463 792.766 52.3415Z" fill="#FFC321"/>
<path d="M784.199 39.4003C784.107 39.5987 783.93 39.7046 783.754 39.8105C783.874 39.6429 783.995 39.4754 784.199 39.4003Z" fill="#FFC321"/>
<path d="M832.276 116.513C831.04 115.43 830.126 114.273 829.212 113.115C829.476 112.588 829.74 112.061 830.004 111.534C832.169 112.028 834.334 112.522 836.726 113.302C835.502 114.538 834.05 115.488 832.276 116.513Z" fill="#FFC321"/>
<path d="M816.563 93.5069C813.88 95.2489 810.806 96.908 807.343 98.576C808.147 92.2143 808.949 91.7649 816.563 93.5069Z" fill="#FFC321"/>
<path d="M818.951 105.585C819.014 104.599 819.019 103.606 819.172 102.637C819.243 102.188 819.604 101.786 820.076 100.916C822.446 101.311 824.909 101.722 827.774 102.2C826.107 107.176 822.958 106.602 819.326 105.667C818.958 105.592 818.954 105.587 818.951 105.585Z" fill="#FFC321"/>
<path d="M842.68 91.2249C843.04 90.8607 843.481 90.6968 843.922 90.5328C843.947 90.9452 843.972 91.3575 843.997 91.7699C843.585 91.655 843.172 91.54 842.68 91.2249Z" fill="#FFC321"/>
<path d="M843.973 99.2584C843.834 99.6525 843.569 99.8959 843.305 100.139C843.145 99.9357 842.986 99.7322 842.827 99.5287C843.167 99.3883 843.507 99.2479 843.973 99.2584Z" fill="#FFC321"/>
<path d="M841.2 104.4C841.107 104.599 840.93 104.705 840.754 104.811C840.874 104.643 840.995 104.475 841.2 104.4Z" fill="#FFC321"/>
</svg>
